<?xml version="1.0" standalone="no"?>
<!DOCTYPE svg PUBLIC "-//W3C//DTD SVG 20010904//EN"
 "http://www.w3.org/TR/2001/REC-SVG-20010904/DTD/svg10.dtd">
<svg version="1.0" xmlns="http://www.w3.org/2000/svg"
 width="300.000000pt" height="300.000000pt" viewBox="0 0 300.000000 300.000000"
 preserveAspectRatio="xMidYMid meet">
<metadata>
Created by potrace 1.10, written by Peter Selinger 2001-2011
</metadata>
<g transform="translate(0.000000,300.000000) scale(0.100000,-0.100000)"
fill="#000000" stroke="none">
<path d="M1280 2109 c-159 -6 -186 -13 -305 -79 -40 -22 -86 -40 -103 -40 -90
0 -144 -56 -193 -199 -11 -31 -37 -85 -58 -121 -47 -79 -56 -115 -41 -172 22
-80 151 -175 332 -242 46 -17 68 -32 83 -55 11 -18 40 -62 64 -99 36 -56 44
-78 48 -129 l6 -61 -42 -39 c-30 -28 -40 -44 -35 -56 8 -23 47 -32 74 -17 16
9 25 9 33 1 21 -21 58 -11 101 29 l44 41 59 -29 c32 -16 72 -33 88 -37 27 -6
28 -8 10 -15 -11 -4 -29 -17 -40 -29 -24 -27 -11 -54 29 -59 15 -2 26 -10 26
-18 0 -25 47 -36 80 -19 16 8 32 20 36 26 4 7 12 -1 20 -20 10 -24 19 -31 42
-31 36 0 52 16 52 55 0 47 10 53 87 58 71 4 73 4 67 -18 -8 -31 19 -51 50 -37
18 8 27 7 39 -5 19 -19 44 -7 80 40 17 23 40 38 70 47 56 15 117 64 117 93 0
15 13 29 41 45 57 33 114 87 129 122 19 46 5 89 -51 154 -28 33 -68 86 -90
118 -22 31 -55 70 -73 85 l-34 27 43 38 c58 51 99 135 90 180 -13 58 -45 108
-111 174 -90 88 -175 147 -268 184 -44 17 -96 45 -115 62 -70 61 -87 63 -481
47z m430 -43 c19 -12 73 -58 119 -100 77 -71 137 -113 147 -103 2 2 -25 27
-61 57 -36 29 -63 55 -61 58 3 3 34 -9 68 -26 116 -57 285 -223 304 -298 4
-13 3 -40 0 -60 -7 -33 -13 -39 -89 -75 -173 -83 -378 -95 -647 -40 -248 51
-287 55 -388 36 -71 -14 -97 -15 -142 -5 -50 10 -62 9 -140 -16 -47 -15 -108
-28 -137 -28 -57 0 -61 -12 -8 -22 25 -4 61 2 122 21 48 15 101 26 118 25 73
-5 176 -3 250 4 72 7 99 4 265 -30 169 -36 198 -39 335 -38 188 1 289 25 410
98 20 12 11 0 -26 -35 -40 -39 -98 -77 -210 -136 -188 -98 -234 -113 -355
-113 -104 0 -182 -14 -210 -36 -18 -14 -17 -15 9 -11 31 5 63 -26 93 -88 9
-19 31 -47 48 -63 29 -26 32 -32 31 -87 -1 -44 -7 -72 -25 -102 -26 -48 -32
-48 -125 -10 -123 51 -242 152 -329 279 -31 45 -54 84 -51 86 2 2 27 -10 56
-27 28 -18 53 -30 56 -28 10 10 -90 76 -154 102 -38 15 -110 47 -161 71 -226
106 -267 186 -174 341 22 38 45 86 52 108 19 60 55 127 82 153 34 32 73 40
143 31 76 -9 150 -11 142 -3 -3 4 -34 12 -68 18 l-63 11 90 42 c104 50 175 63
334 63 l114 0 -79 -56 c-57 -40 -72 -54 -51 -50 16 4 56 26 90 49 104 71 202
82 276 33z m437 -698 c22 -24 60 -70 83 -103 24 -33 61 -80 82 -104 55 -63 47
-130 -21 -177 -20 -14 -21 -14 -21 10 0 14 -11 37 -24 53 l-24 28 -37 -18
c-23 -11 -41 -29 -50 -50 -7 -18 -25 -38 -39 -45 -14 -6 -26 -19 -26 -27 0
-11 -6 -15 -17 -11 -10 2 -38 7 -63 11 -76 10 -22 -13 81 -35 50 -10 94 -22
98 -25 12 -13 -60 -65 -106 -78 -34 -9 -52 -21 -67 -44 -36 -55 -69 -57 -41
-3 24 46 10 49 -29 7 -19 -20 -38 -37 -44 -37 -24 0 -21 21 8 54 35 40 27 54
-16 25 -30 -20 -69 -25 -78 -10 -3 4 6 19 20 32 18 16 34 22 59 21 41 -3 44 8
15 56 -20 32 -43 41 -55 22 -3 -5 3 -10 14 -10 12 0 25 -12 35 -30 8 -16 10
-30 5 -30 -5 0 -9 4 -9 9 0 5 -9 12 -20 16 -10 3 -28 21 -39 39 -30 48 -20
115 27 180 34 46 36 48 44 26 11 -31 37 -49 70 -50 42 0 57 10 79 51 11 22 33
46 52 55 17 9 35 23 40 30 6 10 14 10 38 2 45 -16 48 -1 3 18 -88 37 -236 -1
-322 -83 -42 -40 -52 -43 -52 -14 -1 9 -7 30 -15 46 l-15 30 3 -32 c3 -23 -1
-33 -14 -36 -10 -3 -27 -23 -38 -46 -29 -55 -16 -85 35 -79 19 2 34 0 34 -4 0
-5 -11 -30 -24 -57 -20 -38 -32 -50 -55 -54 -67 -14 -97 -88 -38 -95 15 -2 25
-8 21 -13 -3 -5 -10 -7 -15 -4 -5 4 -9 -17 -9 -48 0 -63 -18 -89 -46 -66 -11
9 -14 23 -11 46 7 38 -2 42 -29 12 -20 -22 -66 -49 -84 -49 -19 0 -10 28 15
44 14 9 23 21 19 27 -4 6 -14 5 -29 -5 -12 -8 -35 -16 -51 -18 -47 -5 -36 24
16 43 39 14 53 28 107 105 34 49 62 97 62 106 1 9 -13 27 -30 41 -25 19 -32
34 -36 71 -7 62 -26 59 -21 -4 1 -28 0 -50 -3 -50 -11 0 -47 45 -64 80 -10 19
-26 45 -38 57 -26 29 -22 31 138 36 150 5 166 10 380 125 72 39 132 70 135 71
3 1 24 -18 47 -41z m-27 -157 c0 -5 -13 -14 -29 -19 -16 -6 -41 -29 -57 -54
-36 -52 -79 -63 -114 -28 -27 27 -22 40 20 64 59 34 180 59 180 37z m-336
-103 c15 -59 -4 -96 -44 -83 -26 8 -25 29 1 71 24 40 34 42 43 12z m460 -89
c23 -66 -36 -116 -120 -103 -49 7 -56 20 -20 34 14 5 30 19 37 32 35 68 85 86
103 37z m-631 -21 c8 -11 4 -28 -11 -59 l-22 -44 0 63 c0 64 11 76 33 40z
m-378 -86 l30 -22 -42 -40 c-45 -42 -63 -50 -63 -25 0 8 5 15 10 15 6 0 10 5
10 10 0 16 -20 12 -47 -10 -26 -20 -73 -27 -73 -11 0 5 16 18 35 30 34 20 35
22 35 84 l0 65 38 -37 c20 -20 51 -47 67 -59z m572 -75 c-16 -10 -31 -27 -34
-38 -4 -13 -14 -19 -34 -19 l-28 0 31 70 31 70 32 -33 32 -32 -30 -18z m-77
49 c0 -19 -33 -76 -45 -76 -34 0 -29 50 8 68 23 11 37 14 37 8z"/>
<path d="M1448 1964 c-29 -15 -39 -30 -14 -21 24 10 41 -20 28 -49 -16 -33
-40 -41 -57 -18 -13 17 -14 14 -14 -36 0 -99 44 -178 127 -231 49 -31 143 -55
170 -43 12 5 0 10 -36 16 -30 4 -61 12 -70 18 -12 6 -6 7 19 3 50 -7 103 12
135 50 23 27 26 37 20 80 -11 96 -103 203 -199 232 -62 18 -75 18 -109 -1z
m131 -53 c67 -35 141 -135 141 -192 0 -64 -130 -108 -193 -65 -37 25 -83 89
-91 129 -5 22 -1 33 23 55 17 15 36 42 42 60 13 37 26 39 78 13z"/>
<path d="M836 1871 c-3 -5 1 -11 9 -15 21 -8 19 -30 -5 -51 -24 -21 -47 -14
-52 17 -3 22 -5 21 -32 -15 -42 -54 -60 -129 -42 -172 17 -39 42 -55 87 -55
37 0 32 -10 -14 -27 -24 -8 -27 -12 -11 -12 34 -2 111 54 137 101 48 84 56
179 19 221 -16 18 -86 24 -96 8z m65 -162 c-17 -56 -48 -89 -82 -89 -51 0 -69
16 -69 61 0 60 15 82 50 74 24 -5 36 0 67 29 l38 35 3 -37 c2 -20 -1 -53 -7
-73z"/>
<path d="M2116 1145 c-20 -20 -4 -58 22 -53 22 4 27 41 9 57 -12 9 -18 8 -31
-4z"/>
<path d="M1855 1054 c-21 -22 -15 -48 12 -52 30 -4 49 31 27 52 -19 20 -19 20
-39 0z m33 -21 c-5 -25 -28 -28 -28 -4 0 12 6 21 16 21 9 0 14 -7 12 -17z"/>
<path d="M2061 1040 c-7 -4 -11 -18 -9 -31 5 -35 42 -33 46 2 3 28 -16 43 -37
29z"/>
<path d="M1707 973 c-4 -3 -7 -15 -7 -25 0 -28 34 -19 38 10 3 21 -16 31 -31
15z"/>
<path d="M1640 930 c-9 -16 -8 -22 5 -26 21 -9 37 8 29 29 -8 23 -21 21 -34
-3z"/>
<path d="M2013 884 c-7 -20 22 -45 43 -37 19 7 18 39 -2 47 -25 10 -34 7 -41
-10z"/>
</g>
</svg>
